<svg data-v-423bf9ae="" xmlns="http://www.w3.org/2000/svg" viewBox="0 0 111.52509320287875 60" class="font"><!----><!----><!----><g data-v-423bf9ae="" id="fec6b444-efea-4db4-9bab-145d0ade0533" fill="black" transform="matrix(6.1412490322938345,0,0,6.1412490322938345,-2.8249746980367902,-25.36335872934655)"><path d="M0.46 13.82L4.91 13.82L4.91 13.29C3.92 13.24 3.81 13.17 3.81 12.46L3.81 9.07L3.84 9.07C4.56 10.44 5.07 11.17 5.75 12.15C6.69 13.47 7.35 13.82 9.11 13.87L10.07 13.90L10.07 13.37L9.93 13.33C9.63 13.26 9.31 12.98 8.92 12.53C7.73 11.17 6.38 9.24 5.61 7.95C6.69 6.82 7.43 5.95 8.43 5.21C8.92 4.84 9.18 4.70 10.04 4.63L10.04 4.13L6.23 4.13L6.23 4.63L6.82 4.72C7.04 4.75 7.08 4.89 6.90 5.11C6.54 5.57 5.99 6.29 5.28 7.10L3.81 8.79L3.81 5.49C3.81 4.77 3.92 4.70 4.91 4.66L4.91 4.13L0.46 4.13L0.46 4.66C1.46 4.70 1.57 4.77 1.57 5.49L1.57 12.46C1.57 13.17 1.46 13.24 0.46 13.29ZM13.71 8.72L13.71 5.29C13.71 4.90 13.82 4.77 14.53 4.77C15.47 4.77 16.27 5.40 16.27 7.01C16.27 8.08 15.90 9.32 14.49 9.32C13.94 9.32 13.71 9.25 13.71 8.72ZM10.36 13.82L15.05 13.82L15.05 13.31C13.82 13.24 13.71 13.17 13.71 12.46L13.71 9.97L14.55 9.97C15.86 9.97 16.90 9.73 17.54 9.27C18.24 8.76 18.62 8.01 18.62 6.97C18.62 5.85 18.12 5.08 17.43 4.66C16.74 4.24 15.83 4.13 14.70 4.13L10.36 4.13L10.36 4.66C11.35 4.70 11.47 4.77 11.47 5.49L11.47 12.46C11.47 13.17 11.35 13.24 10.36 13.29Z"></path></g><!----><!----></svg>